<svg xmlns="http://www.w3.org/2000/svg" xmlns:xlink="http://www.w3.org/1999/xlink" x="0px" y="0px" enable-background="new 0 0 100 100" version="1.1" viewBox="0 0 100 125" xml:space="preserve">
    <g>
        <g>
            <path fill="none" d="M50.001,7.729c-23.31,0-42.274,18.961-42.274,42.269c0,23.31,18.964,42.274,42.274,42.274    c23.308,0,42.272-18.964,42.272-42.274C92.273,26.69,73.308,7.729,50.001,7.729z M71.21,59.014L50.965,79.259    c-0.267,0.267-0.616,0.399-0.964,0.399c-0.349,0-0.698-0.133-0.964-0.399L28.792,59.014c-0.533-0.532-0.533-1.395,0-1.927    c0.533-0.533,1.395-0.533,1.928,0l19.281,19.281l19.281-19.281c0.533-0.533,1.396-0.533,1.929,0    C71.742,57.619,71.742,58.482,71.21,59.014z M71.21,31.062L50.965,51.307c-0.267,0.267-0.616,0.4-0.964,0.4    c-0.349,0-0.698-0.133-0.964-0.4L28.792,31.062c-0.533-0.532-0.533-1.395,0-1.927c0.533-0.533,1.395-0.533,1.928,0l19.281,19.281    l19.281-19.281c0.533-0.533,1.396-0.533,1.929,0C71.742,29.667,71.742,30.53,71.21,31.062z"/>
            <path d="M50.001,5.002C25.186,5.002,5,25.188,5,49.997c0,24.815,20.186,45.001,45.001,45.001C74.813,94.998,95,74.812,95,49.997    C95,25.188,74.813,5.002,50.001,5.002z M50.001,92.271c-23.31,0-42.274-18.964-42.274-42.274    c0-23.308,18.964-42.269,42.274-42.269c23.308,0,42.272,18.961,42.272,42.269C92.273,73.308,73.308,92.271,50.001,92.271z"/>
            <path d="M69.281,29.135L50.001,48.416L30.72,29.135c-0.533-0.533-1.395-0.533-1.928,0c-0.533,0.532-0.533,1.395,0,1.927    l20.245,20.245c0.266,0.267,0.615,0.4,0.964,0.4c0.349,0,0.697-0.133,0.964-0.4L71.21,31.062c0.532-0.532,0.532-1.395,0-1.927    C70.677,28.602,69.814,28.602,69.281,29.135z"/>
            <path d="M69.281,57.087L50.001,76.368L30.72,57.087c-0.533-0.533-1.395-0.533-1.928,0c-0.533,0.532-0.533,1.395,0,1.927    l20.245,20.245c0.266,0.267,0.615,0.399,0.964,0.399c0.349,0,0.697-0.133,0.964-0.399L71.21,59.014    c0.532-0.532,0.532-1.395,0-1.927C70.677,56.554,69.814,56.554,69.281,57.087z"/>
        </g>
    </g>
</svg>
